<svg width="11" height="14" viewBox="0 0 11 14" fill="none" xmlns="http://www.w3.org/2000/svg">
<path fill-rule="evenodd" clip-rule="evenodd" d="M1.12916 0.692041C1.39123 0.467402 1.7858 0.497753 2.01044 0.759832L7.01044 6.59316C7.21106 6.82722 7.21106 7.1726 7.01044 7.40665L2.01044 13.24C1.7858 13.5021 1.39123 13.5324 1.12916 13.3078C0.867077 13.0831 0.836726 12.6886 1.06136 12.4265L5.71273 6.99991L1.06136 1.57332C0.836726 1.31124 0.867077 0.91668 1.12916 0.692041ZM4.46265 0.692128C4.72473 0.467489 5.11929 0.49784 5.34393 0.759918L10.3439 6.59325C10.5446 6.82731 10.5446 7.17268 10.3439 7.40674L5.34393 13.2401C5.11929 13.5022 4.72473 13.5325 4.46265 13.3079C4.20057 13.0832 4.17022 12.6887 4.39486 12.4266L9.04622 7L4.39486 1.57341C4.17022 1.31133 4.20057 0.916766 4.46265 0.692128Z" fill="#0373F3"/>
</svg>
